<mxfile host="Electron" agent="Mozilla/5.0 (Macintosh; Intel Mac OS X 10_15_7) AppleWebKit/537.36 (KHTML, like Gecko) draw.io/24.7.8 Chrome/128.0.6613.36 Electron/32.0.1 Safari/537.36" version="24.7.8">
  <diagram name="Page-1" id="Hzlsd_Lw4jd75wHJETEL">
    <mxGraphModel dx="1114" dy="854" grid="1" gridSize="10" guides="1" tooltips="1" connect="1" arrows="1" fold="1" page="1" pageScale="1" pageWidth="850" pageHeight="1100" math="0" shadow="0">
      <root>
        <mxCell id="0" />
        <mxCell id="1" parent="0" />
        <mxCell id="MkVQnHlVz6dzuj8BBIJb-21" value="" style="rounded=0;whiteSpace=wrap;html=1;fontSize=24;align=left;fillColor=none;strokeColor=#666666;dashed=1;" parent="1" vertex="1">
          <mxGeometry x="20" y="70" width="720" height="60" as="geometry" />
        </mxCell>
        <mxCell id="MkVQnHlVz6dzuj8BBIJb-20" value="" style="rounded=0;whiteSpace=wrap;html=1;fontSize=24;align=left;fillColor=none;strokeColor=#666666;" parent="1" vertex="1">
          <mxGeometry x="20" y="70" width="720" height="340" as="geometry" />
        </mxCell>
        <mxCell id="MkVQnHlVz6dzuj8BBIJb-1" value="" style="rounded=0;whiteSpace=wrap;html=1;fontSize=24;align=left;fillColor=none;strokeColor=#666666;dashed=1;" parent="1" vertex="1">
          <mxGeometry x="30" y="140" width="160" height="260" as="geometry" />
        </mxCell>
        <mxCell id="MkVQnHlVz6dzuj8BBIJb-2" value="" style="rounded=0;whiteSpace=wrap;html=1;fontSize=24;align=left;fillColor=none;strokeColor=#666666;" parent="1" vertex="1">
          <mxGeometry x="30" y="140" width="700" height="260" as="geometry" />
        </mxCell>
        <mxCell id="MkVQnHlVz6dzuj8BBIJb-3" value="" style="rounded=0;whiteSpace=wrap;html=1;fontSize=24;align=left;fillColor=none;strokeColor=#666666;" parent="1" vertex="1">
          <mxGeometry x="200" y="150" width="520" height="240" as="geometry" />
        </mxCell>
        <mxCell id="MkVQnHlVz6dzuj8BBIJb-4" value="B" style="rounded=0;whiteSpace=wrap;html=1;fontSize=12;align=center;fillColor=#222222;strokeColor=#666666;fontColor=#B3B3B3;" parent="1" vertex="1">
          <mxGeometry x="40" y="150" width="140" height="30" as="geometry" />
        </mxCell>
        <mxCell id="MkVQnHlVz6dzuj8BBIJb-5" value="" style="rounded=0;whiteSpace=wrap;html=1;fontSize=12;align=center;fillColor=none;strokeColor=#666666;fontColor=#B3B3B3;" parent="1" vertex="1">
          <mxGeometry x="40" y="190" width="140" height="30" as="geometry" />
        </mxCell>
        <mxCell id="MkVQnHlVz6dzuj8BBIJb-6" value="" style="rounded=0;whiteSpace=wrap;html=1;fontSize=12;align=center;fillColor=none;strokeColor=#666666;fontColor=#B3B3B3;" parent="1" vertex="1">
          <mxGeometry x="40" y="230" width="140" height="30" as="geometry" />
        </mxCell>
        <mxCell id="MkVQnHlVz6dzuj8BBIJb-8" value="" style="rounded=0;whiteSpace=wrap;html=1;fontSize=12;align=center;fillColor=none;strokeColor=#666666;fontColor=#B3B3B3;" parent="1" vertex="1">
          <mxGeometry x="210" y="200" width="140" height="30" as="geometry" />
        </mxCell>
        <mxCell id="MkVQnHlVz6dzuj8BBIJb-9" value="" style="rounded=0;whiteSpace=wrap;html=1;fontSize=12;align=center;fillColor=none;strokeColor=#666666;fontColor=#B3B3B3;" parent="1" vertex="1">
          <mxGeometry x="210" y="240" width="140" height="30" as="geometry" />
        </mxCell>
        <mxCell id="MkVQnHlVz6dzuj8BBIJb-14" value="" style="rounded=0;whiteSpace=wrap;html=1;fontSize=24;align=left;fillColor=none;strokeColor=#666666;dashed=1;" parent="1" vertex="1">
          <mxGeometry x="200" y="150" width="160" height="240" as="geometry" />
        </mxCell>
        <mxCell id="I-ww6zNi3iL0gXRlLw_G-1" value="Menu A" style="rounded=0;whiteSpace=wrap;html=1;fontSize=12;align=center;fillColor=#222222;strokeColor=#666666;fontColor=#B3B3B3;" vertex="1" parent="1">
          <mxGeometry x="30" y="85" width="140" height="30" as="geometry" />
        </mxCell>
        <mxCell id="I-ww6zNi3iL0gXRlLw_G-3" value="" style="rounded=0;whiteSpace=wrap;html=1;fontSize=12;align=center;fillColor=none;strokeColor=#666666;fontColor=#B3B3B3;" vertex="1" parent="1">
          <mxGeometry x="180" y="85" width="140" height="30" as="geometry" />
        </mxCell>
        <mxCell id="I-ww6zNi3iL0gXRlLw_G-4" value="" style="rounded=0;whiteSpace=wrap;html=1;fontSize=12;align=center;fillColor=none;strokeColor=#666666;fontColor=#B3B3B3;" vertex="1" parent="1">
          <mxGeometry x="330" y="85" width="140" height="30" as="geometry" />
        </mxCell>
        <mxCell id="I-ww6zNi3iL0gXRlLw_G-5" value="" style="rounded=0;whiteSpace=wrap;html=1;fontSize=12;align=center;fillColor=none;strokeColor=#666666;fontColor=#B3B3B3;" vertex="1" parent="1">
          <mxGeometry x="480" y="85" width="140" height="30" as="geometry" />
        </mxCell>
        <mxCell id="MkVQnHlVz6dzuj8BBIJb-7" value="C" style="rounded=0;whiteSpace=wrap;html=1;fontSize=12;align=center;fillColor=#444444;strokeColor=#666666;fontColor=#B3B3B3;" parent="1" vertex="1">
          <mxGeometry x="210" y="160" width="140" height="30" as="geometry" />
        </mxCell>
      </root>
    </mxGraphModel>
  </diagram>
</mxfile>
